ffmpeg started on 2025-05-26 at 19:19:09
Report written to "D:\Convert\FFMetrics\reports\psnr_report-6.txt"
Log level: 32
Command line:
ffmpeg -hide_banner -nostdin -i "G:\\\xc0\xed\xe8\xec\xe5\\\xce\xed\xe3\xee\xe8\xed\xe3\xe8\\!_34_\xc2\xe5\xf1\xed\xe0_2024\\DreamCast\\\xcc\xee\xe9 \xf1\xee\xf1\xe5\xe4-\xb8\xea\xe0\xe9\\[DC] Tonari no Youkai-san - 09_Telegram_HEVC.mkv" -i "G:\\\xc0\xed\xe8\xec\xe5\\\xce\xed\xe3\xee\xe8\xed\xe3\xe8\\!_34_\xc2\xe5\xf1\xed\xe0_2024\\DreamCast\\\xcc\xee\xe9 \xf1\xee\xf1\xe5\xe4-\xb8\xea\xe0\xe9\\[DC] Tonari no Youkai-san - 09_Telegram.mp4" -lavfi "[0:v]settb=AVTB,setpts=PTS-STARTPTS,format=pix_fmts=yuv420p10,fps=24000/1001,scale=1920:1080:flags=bicubic[main];[1:v]settb=AVTB,setpts=PTS-STARTPTS,format=pix_fmts=yuv420p,fps=24000/1001,scale=1920:1080:flags=bicubic[ref];[main][ref]psnr=eof_action=endall:stats_file='D\\:/Convert/FFMetrics/logs/psnr_logfile-6.txt'" -f null -
Input #0, matroska,webm, from 'G:\Аниме\Онгоинги\!_34_Весна_2024\DreamCast\Мой сосед-ёкай\[DC] Tonari no Youkai-san - 09_Telegram_HEVC.mkv':
  Metadata:
    COMPATIBLE_BRANDS: isomiso2avc1mp41
    MAJOR_BRAND     : isom
    MINOR_VERSION   : 512
    ENCODER         : Lavf61.7.100
  Duration: 00:23:46.60, start: -0.021000, bitrate: 933 kb/s
  Stream #0:0: Video: hevc (Main 10), yuv420p10le(tv, bt709, progressive), 1920x1080 [SAR 1:1 DAR 16:9], 23.98 fps, 23.98 tbr, 1k tbn (default)
      Metadata:
        HANDLER_NAME    : VideoHandler
        VENDOR_ID       : [0][0][0][0]
        ENCODER         : Lavc61.19.100 libx265
        BPS             : 735960
        DURATION        : 00:23:46.466708333
        NUMBER_OF_FRAMES: 34201
        NUMBER_OF_BYTES : 131227864
        _STATISTICS_WRITING_APP: mkvpropedit v66.0.0 ('Josie') 64-bit
        _STATISTICS_WRITING_DATE_UTC: 2025-05-26 14:02:24
        _STATISTICS_TAGS: BPS DURATION NUMBER_OF_FRAMES NUMBER_OF_BYTES
  Stream #0:1: Audio: aac (LC), 48000 Hz, stereo, fltp (default)
      Metadata:
        HANDLER_NAME    : SoundHandler
        VENDOR_ID       : [0][0][0][0]
        ENCODER         : Lavc61.19.100 aac
        BPS             : 193312
        DURATION        : 00:23:46.602000000
        NUMBER_OF_FRAMES: 66873
        NUMBER_OF_BYTES : 34472525
        _STATISTICS_WRITING_APP: mkvpropedit v66.0.0 ('Josie') 64-bit
        _STATISTICS_WRITING_DATE_UTC: 2025-05-26 14:02:24
        _STATISTICS_TAGS: BPS DURATION NUMBER_OF_FRAMES NUMBER_OF_BYTES
Input #1, mov,mp4,m4a,3gp,3g2,mj2, from 'G:\Аниме\Онгоинги\!_34_Весна_2024\DreamCast\Мой сосед-ёкай\[DC] Tonari no Youkai-san - 09_Telegram.mp4':
  Metadata:
    major_brand     : isom
    minor_version   : 512
    compatible_brands: isomiso2avc1mp41
    encoder         : Lavf60.16.100
  Duration: 00:23:46.58, start: 0.000000, bitrate: 3620 kb/s
  Stream #1:0[0x1](und): Video: h264 (High) (avc1 / 0x31637661), yuv420p(tv, bt709, progressive), 1920x1080 [SAR 1:1 DAR 16:9], 3472 kb/s, 23.98 fps, 23.98 tbr, 24k tbn (default)
      Metadata:
        handler_name    : VideoHandler
        vendor_id       : [0][0][0][0]
        encoder         : Lavc60.31.102 h264_qsv
  Stream #1:1[0x2](und): Audio: aac (HE-AACv2) (mp4a / 0x6134706D), 48000 Hz, stereo, fltp, 144 kb/s (default)
      Metadata:
        handler_name    : SoundHandler
        vendor_id       : [0][0][0][0]
Stream mapping:
  Stream #0:0 (hevc) -> settb:default
  Stream #1:0 (h264) -> settb:default
  psnr:default -> Stream #0:0 (wrapped_avframe)
  Stream #0:1 -> #0:1 (aac (native) -> pcm_s16le (native))
Output #0, null, to 'pipe:':
  Metadata:
    COMPATIBLE_BRANDS: isomiso2avc1mp41
    MAJOR_BRAND     : isom
    MINOR_VERSION   : 512
    encoder         : Lavf61.7.100
  Stream #0:0: Video: wrapped_avframe, yuv420p10le(tv, bt709, progressive), 1920x1080 [SAR 1:1 DAR 16:9], q=2-31, 200 kb/s, 23.98 fps, 23.98 tbn
      Metadata:
        encoder         : Lavc61.19.100 wrapped_avframe
  Stream #0:1: Audio: pcm_s16le, 48000 Hz, stereo, s16, 1536 kb/s (default)
      Metadata:
        HANDLER_NAME    : SoundHandler
        VENDOR_ID       : [0][0][0][0]
        _STATISTICS_TAGS: BPS DURATION NUMBER_OF_FRAMES NUMBER_OF_BYTES
        BPS             : 193312
        DURATION        : 00:23:46.602000000
        NUMBER_OF_FRAMES: 66873
        NUMBER_OF_BYTES : 34472525
        _STATISTICS_WRITING_APP: mkvpropedit v66.0.0 ('Josie') 64-bit
        _STATISTICS_WRITING_DATE_UTC: 2025-05-26 14:02:24
        encoder         : Lavc61.19.100 pcm_s16le
frame=  193 fps=0.0 q=-0.0 size=N/A time=00:00:08.04 bitrate=N/A speed=15.6x    frame=  463 fps=448 q=-0.0 size=N/A time=00:00:19.31 bitrate=N/A speed=18.7x    frame=  717 fps=460 q=-0.0 size=N/A time=00:00:29.90 bitrate=N/A speed=19.2x    frame=  983 fps=476 q=-0.0 size=N/A time=00:00:40.99 bitrate=N/A speed=19.9x    frame= 1266 fps=489 q=-0.0 size=N/A time=00:00:52.80 bitrate=N/A speed=20.4x    frame= 1547 fps=499 q=-0.0 size=N/A time=00:01:04.52 bitrate=N/A speed=20.8x    frame= 1808 fps=500 q=-0.0 size=N/A time=00:01:15.40 bitrate=N/A speed=20.8x    frame= 2020 fps=489 q=-0.0 size=N/A time=00:01:24.25 bitrate=N/A speed=20.4x    frame= 2232 fps=480 q=-0.0 size=N/A time=00:01:33.09 bitrate=N/A speed=  20x    frame= 2449 fps=475 q=-0.0 size=N/A time=00:01:42.14 bitrate=N/A speed=19.8x    frame= 2695 fps=474 q=-0.0 size=N/A time=00:01:52.40 bitrate=N/A speed=19.8x    frame= 2899 fps=468 q=-0.0 size=N/A time=00:02:00.91 bitrate=N/A speed=19.5x    frame= 3110 fps=463 q=-0.0 size=N/A time=00:02:09.71 bitrate=N/A speed=19.3x    frame= 3315 fps=458 q=-0.0 size=N/A time=00:02:18.26 bitrate=N/A speed=19.1x    frame= 3545 fps=458 q=-0.0 size=N/A time=00:02:27.85 bitrate=N/A speed=19.1x    frame= 3753 fps=455 q=-0.0 size=N/A time=00:02:36.53 bitrate=N/A speed=  19x    frame= 4031 fps=460 q=-0.0 size=N/A time=00:02:48.12 bitrate=N/A speed=19.2x    frame= 4318 fps=465 q=-0.0 size=N/A time=00:03:00.09 bitrate=N/A speed=19.4x    frame= 4597 fps=469 q=-0.0 size=N/A time=00:03:11.73 bitrate=N/A speed=19.5x    frame= 4878 fps=473 q=-0.0 size=N/A time=00:03:23.45 bitrate=N/A speed=19.7x    frame= 5147 fps=475 q=-0.0 size=N/A time=00:03:34.67 bitrate=N/A speed=19.8x    frame= 5424 fps=478 q=-0.0 size=N/A time=00:03:46.22 bitrate=N/A speed=19.9x    frame= 5702 fps=480 q=-0.0 size=N/A time=00:03:57.82 bitrate=N/A speed=  20x    frame= 5943 fps=480 q=-0.0 size=N/A time=00:04:07.87 bitrate=N/A speed=  20x    frame= 6207 fps=481 q=-0.0 size=N/A time=00:04:18.88 bitrate=N/A speed=20.1x    frame= 6449 fps=481 q=-0.0 size=N/A time=00:04:28.97 bitrate=N/A speed=20.1x    frame= 6672 fps=479 q=-0.0 size=N/A time=00:04:38.27 bitrate=N/A speed=  20x    frame= 6908 fps=478 q=-0.0 size=N/A time=00:04:48.12 bitrate=N/A speed=  20x    frame= 7155 fps=478 q=-0.0 size=N/A time=00:04:58.42 bitrate=N/A speed=  20x    frame= 7390 fps=477 q=-0.0 size=N/A time=00:05:08.22 bitrate=N/A speed=19.9x    frame= 7611 fps=476 q=-0.0 size=N/A time=00:05:17.44 bitrate=N/A speed=19.9x    frame= 7821 fps=474 q=-0.0 size=N/A time=00:05:26.20 bitrate=N/A speed=19.8x    frame= 8055 fps=473 q=-0.0 size=N/A time=00:05:35.96 bitrate=N/A speed=19.7x    frame= 8285 fps=472 q=-0.0 size=N/A time=00:05:45.55 bitrate=N/A speed=19.7x    frame= 8524 fps=472 q=-0.0 size=N/A time=00:05:55.52 bitrate=N/A speed=19.7x    frame= 8766 fps=472 q=-0.0 size=N/A time=00:06:05.61 bitrate=N/A speed=19.7x    frame= 9011 fps=472 q=-0.0 size=N/A time=00:06:15.83 bitrate=N/A speed=19.7x    frame= 9263 fps=472 q=-0.0 size=N/A time=00:06:26.34 bitrate=N/A speed=19.7x    frame= 9510 fps=473 q=-0.0 size=N/A time=00:06:36.64 bitrate=N/A speed=19.7x    frame= 9763 fps=473 q=-0.0 size=N/A time=00:06:47.19 bitrate=N/A speed=19.7x    frame=10020 fps=474 q=-0.0 size=N/A time=00:06:57.91 bitrate=N/A speed=19.8x    frame=10302 fps=475 q=-0.0 size=N/A time=00:07:09.67 bitrate=N/A speed=19.8x    frame=10563 fps=476 q=-0.0 size=N/A time=00:07:20.56 bitrate=N/A speed=19.8x    frame=10821 fps=477 q=-0.0 size=N/A time=00:07:31.32 bitrate=N/A speed=19.9x    frame=11098 fps=478 q=-0.0 size=N/A time=00:07:42.87 bitrate=N/A speed=19.9x    frame=11355 fps=478 q=-0.0 size=N/A time=00:07:53.59 bitrate=N/A speed=19.9x    frame=11637 fps=480 q=-0.0 size=N/A time=00:08:05.35 bitrate=N/A speed=  20x    frame=11898 fps=480 q=-0.0 size=N/A time=00:08:16.24 bitrate=N/A speed=  20x    frame=12152 fps=480 q=-0.0 size=N/A time=00:08:26.83 bitrate=N/A speed=  20x    frame=12394 fps=480 q=-0.0 size=N/A time=00:08:36.93 bitrate=N/A speed=  20x    frame=12663 fps=481 q=-0.0 size=N/A time=00:08:48.15 bitrate=N/A speed=20.1x    frame=12923 fps=482 q=-0.0 size=N/A time=00:08:58.99 bitrate=N/A speed=20.1x    frame=13161 fps=481 q=-0.0 size=N/A time=00:09:08.92 bitrate=N/A speed=20.1x    frame=13366 fps=480 q=-0.0 size=N/A time=00:09:17.47 bitrate=N/A speed=  20x    frame=13626 fps=480 q=-0.0 size=N/A time=00:09:28.31 bitrate=N/A speed=  20x    frame=13875 fps=480 q=-0.0 size=N/A time=00:09:38.70 bitrate=N/A speed=  20x    frame=14137 fps=481 q=-0.0 size=N/A time=00:09:49.63 bitrate=N/A speed=  20x    frame=14373 fps=480 q=-0.0 size=N/A time=00:09:59.47 bitrate=N/A speed=  20x    frame=14624 fps=480 q=-0.0 size=N/A time=00:10:09.94 bitrate=N/A speed=  20x    frame=14905 fps=481 q=-0.0 size=N/A time=00:10:21.66 bitrate=N/A speed=20.1x    frame=15164 fps=482 q=-0.0 size=N/A time=00:10:32.46 bitrate=N/A speed=20.1x    frame=15423 fps=482 q=-0.0 size=N/A time=00:10:43.26 bitrate=N/A speed=20.1x    frame=15693 fps=483 q=-0.0 size=N/A time=00:10:54.52 bitrate=N/A speed=20.1x    frame=15935 fps=483 q=-0.0 size=N/A time=00:11:04.62 bitrate=N/A speed=20.1x    frame=16219 fps=484 q=-0.0 size=N/A time=00:11:16.46 bitrate=N/A speed=20.2x    frame=16490 fps=484 q=-0.0 size=N/A time=00:11:27.77 bitrate=N/A speed=20.2x    frame=16782 fps=486 q=-0.0 size=N/A time=00:11:39.94 bitrate=N/A speed=20.3x    frame=17061 fps=486 q=-0.0 size=N/A time=00:11:51.58 bitrate=N/A speed=20.3x    frame=17339 fps=487 q=-0.0 size=N/A time=00:12:03.18 bitrate=N/A speed=20.3x    frame=17591 fps=487 q=-0.0 size=N/A time=00:12:13.69 bitrate=N/A speed=20.3x    frame=17834 fps=487 q=-0.0 size=N/A time=00:12:23.82 bitrate=N/A speed=20.3x    frame=18087 fps=487 q=-0.0 size=N/A time=00:12:34.37 bitrate=N/A speed=20.3x    frame=18351 fps=487 q=-0.0 size=N/A time=00:12:45.38 bitrate=N/A speed=20.3x    frame=18609 fps=487 q=-0.0 size=N/A time=00:12:56.15 bitrate=N/A speed=20.3x    frame=18889 fps=488 q=-0.0 size=N/A time=00:13:07.82 bitrate=N/A speed=20.4x    frame=19175 fps=489 q=-0.0 size=N/A time=00:13:19.75 bitrate=N/A speed=20.4x    frame=19427 fps=489 q=-0.0 size=N/A time=00:13:30.26 bitrate=N/A speed=20.4x    frame=19691 fps=489 q=-0.0 size=N/A time=00:13:41.27 bitrate=N/A speed=20.4x    frame=19966 fps=490 q=-0.0 size=N/A time=00:13:52.74 bitrate=N/A speed=20.4x    frame=20218 fps=490 q=-0.0 size=N/A time=00:14:03.25 bitrate=N/A speed=20.4x    frame=20479 fps=490 q=-0.0 size=N/A time=00:14:14.14 bitrate=N/A speed=20.4x    frame=20744 fps=490 q=-0.0 size=N/A time=00:14:25.19 bitrate=N/A speed=20.4x    frame=21010 fps=491 q=-0.0 size=N/A time=00:14:36.29 bitrate=N/A speed=20.5x    frame=21286 fps=491 q=-0.0 size=N/A time=00:14:47.80 bitrate=N/A speed=20.5x    frame=21547 fps=491 q=-0.0 size=N/A time=00:14:58.68 bitrate=N/A speed=20.5x    frame=21825 fps=492 q=-0.0 size=N/A time=00:15:10.28 bitrate=N/A speed=20.5x    frame=22063 fps=492 q=-0.0 size=N/A time=00:15:20.21 bitrate=N/A speed=20.5x    frame=22316 fps=492 q=-0.0 size=N/A time=00:15:30.80 bitrate=N/A speed=20.5x    frame=22582 fps=492 q=-0.0 size=N/A time=00:15:41.85 bitrate=N/A speed=20.5x    frame=22859 fps=492 q=-0.0 size=N/A time=00:15:53.41 bitrate=N/A speed=20.5x    frame=23114 fps=492 q=-0.0 size=N/A time=00:16:04.04 bitrate=N/A speed=20.5x    frame=23389 fps=493 q=-0.0 size=N/A time=00:16:15.51 bitrate=N/A speed=20.6x    frame=23670 fps=493 q=-0.0 size=N/A time=00:16:27.23 bitrate=N/A speed=20.6x    frame=23949 fps=494 q=-0.0 size=N/A time=00:16:38.87 bitrate=N/A speed=20.6x    frame=24243 fps=495 q=-0.0 size=N/A time=00:16:51.13 bitrate=N/A speed=20.6x    frame=24519 fps=495 q=-0.0 size=N/A time=00:17:02.64 bitrate=N/A speed=20.7x    frame=24759 fps=495 q=-0.0 size=N/A time=00:17:12.65 bitrate=N/A speed=20.6x    frame=24993 fps=494 q=-0.0 size=N/A time=00:17:22.41 bitrate=N/A speed=20.6x    frame=25208 fps=494 q=-0.0 size=N/A time=00:17:31.38 bitrate=N/A speed=20.6x    frame=25447 fps=493 q=-0.0 size=N/A time=00:17:41.35 bitrate=N/A speed=20.6x    frame=25707 fps=493 q=-0.0 size=N/A time=00:17:52.19 bitrate=N/A speed=20.6x    frame=25984 fps=494 q=-0.0 size=N/A time=00:18:03.74 bitrate=N/A speed=20.6x    frame=26244 fps=494 q=-0.0 size=N/A time=00:18:14.59 bitrate=N/A speed=20.6x    frame=26498 fps=494 q=-0.0 size=N/A time=00:18:25.18 bitrate=N/A speed=20.6x    frame=26755 fps=494 q=-0.0 size=N/A time=00:18:35.90 bitrate=N/A speed=20.6x    frame=26999 fps=494 q=-0.0 size=N/A time=00:18:46.08 bitrate=N/A speed=20.6x    frame=27250 fps=494 q=-0.0 size=N/A time=00:18:56.55 bitrate=N/A speed=20.6x    frame=27470 fps=493 q=-0.0 size=N/A time=00:19:05.72 bitrate=N/A speed=20.6x    frame=27664 fps=492 q=-0.0 size=N/A time=00:19:13.81 bitrate=N/A speed=20.5x    frame=27867 fps=491 q=-0.0 size=N/A time=00:19:22.28 bitrate=N/A speed=20.5x    frame=28124 fps=491 q=-0.0 size=N/A time=00:19:33.00 bitrate=N/A speed=20.5x    frame=28390 fps=491 q=-0.0 size=N/A time=00:19:44.09 bitrate=N/A speed=20.5x    frame=28585 fps=490 q=-0.0 size=N/A time=00:19:52.23 bitrate=N/A speed=20.5x    frame=28836 fps=490 q=-0.0 size=N/A time=00:20:02.70 bitrate=N/A speed=20.5x    frame=29084 fps=490 q=-0.0 size=N/A time=00:20:13.04 bitrate=N/A speed=20.5x    frame=29294 fps=490 q=-0.0 size=N/A time=00:20:21.80 bitrate=N/A speed=20.4x    frame=29535 fps=489 q=-0.0 size=N/A time=00:20:31.85 bitrate=N/A speed=20.4x    frame=29795 fps=490 q=-0.0 size=N/A time=00:20:42.69 bitrate=N/A speed=20.4x    frame=30046 fps=490 q=-0.0 size=N/A time=00:20:53.16 bitrate=N/A speed=20.4x    frame=30286 fps=489 q=-0.0 size=N/A time=00:21:03.17 bitrate=N/A speed=20.4x    frame=30570 fps=490 q=-0.0 size=N/A time=00:21:15.02 bitrate=N/A speed=20.4x    frame=30839 fps=490 q=-0.0 size=N/A time=00:21:26.24 bitrate=N/A speed=20.4x    frame=31118 fps=491 q=-0.0 size=N/A time=00:21:37.87 bitrate=N/A speed=20.5x    frame=31405 fps=491 q=-0.0 size=N/A time=00:21:49.85 bitrate=N/A speed=20.5x    frame=31689 fps=492 q=-0.0 size=N/A time=00:22:01.69 bitrate=N/A speed=20.5x    frame=31968 fps=492 q=-0.0 size=N/A time=00:22:13.33 bitrate=N/A speed=20.5x    frame=32250 fps=492 q=-0.0 size=N/A time=00:22:25.09 bitrate=N/A speed=20.5x    frame=32445 fps=491 q=-0.0 size=N/A time=00:22:33.22 bitrate=N/A speed=20.5x    frame=32659 fps=491 q=-0.0 size=N/A time=00:22:42.15 bitrate=N/A speed=20.5x    frame=32908 fps=491 q=-0.0 size=N/A time=00:22:52.53 bitrate=N/A speed=20.5x    frame=33164 fps=491 q=-0.0 size=N/A time=00:23:03.21 bitrate=N/A speed=20.5x    frame=33413 fps=491 q=-0.0 size=N/A time=00:23:13.60 bitrate=N/A speed=20.5x    frame=33655 fps=491 q=-0.0 size=N/A time=00:23:23.69 bitrate=N/A speed=20.5x    frame=33824 fps=489 q=-0.0 size=N/A time=00:23:30.74 bitrate=N/A speed=20.4x    frame=34080 fps=489 q=-0.0 size=N/A time=00:23:41.42 bitrate=N/A speed=20.4x    [Parsed_psnr_10 @ 000002d303d19280] PSNR y:49.603908 u:51.407193 v:51.741850 average:50.166140 min:41.497980 max:inf
[out#0/null @ 000002d3767d4e80] video:14696KiB audio:267492KiB subtitle:0KiB other streams:0KiB global headers:0KiB muxing overhead: unknown
frame=34201 fps=490 q=-0.0 Lsize=N/A time=00:23:46.46 bitrate=N/A speed=20.4x    
